Moderustic-Light.ufo
<glyph name="exclam" format="2">
  <advance width="255"/>
  <unicode hex="0021"/>
  <outline>
    <contour>
      <point x="108" y="249" type="line"/>
      <point x="147" y="249" type="line"/>
      <point x="163" y="750" type="line"/>
      <point x="92" y="750" type="line"/>
    </contour>
    <contour>
      <point x="127" y="-20" type="curve" smooth="yes"/>
      <point x="149.173" y="-20"/>
      <point x="166.911" y="-2.26167"/>
      <point x="166.911" y="19.9112" type="curve" smooth="yes"/>
      <point x="166.911" y="41.1972"/>
      <point x="149.173" y="59.8225"/>
      <point x="127" y="59.8225" type="curve" smooth="yes"/>
      <point x="103.94" y="59.8225"/>
      <point x="87.0888" y="41.1972"/>
      <point x="87.0888" y="19.9112" type="curve" smooth="yes"/>
      <point x="87.0888" y="-2.26167"/>
      <point x="103.94" y="-20"/>
    </contour>
  </outline>
</glyph>
<glyph name="four" format="2">
  <advance width="685"/>
  <unicode hex="0034"/>
  <outline>
    <contour>
      <point x="77" y="181" type="line"/>
      <point x="432" y="181" type="line"/>
      <point x="432" y="0" type="line"/>
      <point x="492" y="0" type="line"/>
      <point x="492" y="181" type="line"/>
      <point x="628" y="181" type="line"/>
      <point x="628" y="235" type="line"/>
      <point x="492" y="235" type="line"/>
      <point x="492" y="700" type="line"/>
      <point x="403" y="700" type="line"/>
      <point x="77" y="216" type="line"/>
    </contour>
    <contour>
      <point x="158" y="235" type="line"/>
      <point x="432" y="641" type="line"/>
      <point x="432" y="235" type="line"/>
    </contour>
  </outline>
</glyph>
<glyph name="seven" format="2">
  <advance width="565"/>
  <unicode hex="0037"/>
  <outline>
    <contour>
      <point x="165" y="0" type="line"/>
      <point x="230" y="0" type="line"/>
      <point x="510" y="661" type="line"/>
      <point x="510" y="700" type="line"/>
      <point x="64" y="700" type="line"/>
      <point x="64" y="646" type="line"/>
      <point x="439" y="646" type="line"/>
    </contour>
  </outline>
</glyph>
<glyph name="greater" format="2">
  <advance width="573"/>
  <unicode hex="003E"/>
  <outline>
    <contour>
      <point x="50" y="6" type="line"/>
      <point x="509" y="239" type="line"/>
      <point x="509" y="287" type="line"/>
      <point x="50" y="510" type="line"/>
      <point x="50" y="490" type="line"/>
      <point x="461" y="263" type="line"/>
      <point x="50" y="26" type="line"/>
    </contour>
  </outline>
</glyph>
<glyph name="E" format="2">
  <advance width="550"/>
  <unicode hex="0045"/>
  <anchor x="275" y="719" name="top"/>
  <anchor x="275" y="-20" name="bottom"/>
  <anchor x="475" y="-3" name="ogonek"/>
  <anchor x="-12" y="500" name="topgr"/>
  <outline>
    <contour>
      <point x="94" y="0" type="line"/>
      <point x="475" y="0" type="line" name="ab01"/>
      <point x="475" y="54" type="line" name="sv01"/>
      <point x="154" y="54" type="line"/>
      <point x="154" y="338" type="line" name="dv01"/>
      <point x="435" y="338" type="line"/>
      <point x="435" y="392" type="line"/>
      <point x="154" y="392" type="line" name="dv02"/>
      <point x="154" y="646" type="line" name="sv02"/>
      <point x="463" y="646" type="line"/>
      <point x="463" y="700" type="line" name="at01"/>
      <point x="94" y="700" type="line"/>
    </contour>
  </outline>
</glyph>
<glyph name="H" format="2">
  <advance width="736"/>
  <unicode hex="0048"/>
  <anchor x="368" y="719" name="top"/>
  <anchor x="368" y="-20" name="bottom"/>
  <anchor x="-12" y="500" name="topgr"/>
  <outline>
    <contour>
      <point x="107" y="0" type="line" name="ab01"/>
      <point x="167" y="0" type="line"/>
      <point x="167" y="343" type="line" name="dv01"/>
      <point x="569" y="343" type="line"/>
      <point x="569" y="0" type="line" name="ab02"/>
      <point x="629" y="0" type="line"/>
      <point x="629" y="700" type="line" name="at01"/>
      <point x="569" y="700" type="line"/>
      <point x="569" y="397" type="line"/>
      <point x="167" y="397" type="line" name="dv02"/>
      <point x="167" y="700" type="line" name="at02"/>
      <point x="107" y="700" type="line"/>
    </contour>
  </outline>
</glyph>
<glyph name="I" format="2">
  <advance width="326"/>
  <unicode hex="0049"/>
  <anchor x="168" y="719" name="top"/>
  <anchor x="163" y="-20" name="bottom"/>
  <anchor x="193" y="-3" name="ogonek"/>
  <anchor x="13" y="500" name="topgr"/>
  <outline>
    <contour>
      <point x="133" y="0" type="line"/>
      <point x="193" y="0" type="line"/>
      <point x="193" y="700" type="line"/>
      <point x="133" y="700" type="line"/>
    </contour>
  </outline>
</glyph>
<glyph name="V" format="2">
  <advance width="655"/>
  <unicode hex="0056"/>
  <anchor x="328" y="719" name="top"/>
  <anchor x="328" y="-20" name="bottom"/>
  <outline>
    <contour>
      <point x="269" y="0" type="line"/>
      <point x="332" y="0" type="line"/>
      <point x="105" y="700" type="line"/>
      <point x="42" y="700" type="line"/>
    </contour>
    <contour>
      <point x="323" y="0" type="line"/>
      <point x="386" y="0" type="line"/>
      <point x="613" y="700" type="line"/>
      <point x="550" y="700" type="line"/>
    </contour>
  </outline>
</glyph>
<glyph name="Y" format="2">
  <advance width="662"/>
  <unicode hex="0059"/>
  <anchor x="331" y="719" name="top"/>
  <anchor x="329" y="-20" name="bottom"/>
  <anchor x="-50" y="500" name="topgr"/>
  <outline>
    <contour>
      <point x="301" y="0" type="line" name="ab01"/>
      <point x="361" y="0" type="line"/>
      <point x="361" y="295" type="line" name="iv04"/>
      <point x="614" y="700" type="line" name="at01"/>
      <point x="542" y="700" type="line"/>
      <point x="331" y="349" type="line" name="iv05"/>
      <point x="120" y="700" type="line" name="at02"/>
      <point x="48" y="700" type="line"/>
      <point x="301" y="295" type="line" name="iv01"/>
    </contour>
  </outline>
</glyph>
<glyph name="a" format="2">
  <advance width="645"/>
  <unicode hex="0061"/>
  <anchor x="323" y="520" name="top"/>
  <anchor x="322" y="-20" name="bottom"/>
  <anchor x="542" y="-3" name="ogonek"/>
  <outline>
    <contour>
      <point x="482" y="0" type="line" name="ab01"/>
      <point x="542" y="0" type="line" name="sh01"/>
      <point x="542" y="500" type="line" name="av01"/>
      <point x="482" y="500" type="line"/>
    </contour>
    <contour>
      <point x="295" y="-20" type="curve" smooth="yes" name="dv01"/>
      <point x="424" y="-20"/>
      <point x="498" y="81"/>
      <point x="498" y="252" type="curve" smooth="yes"/>
      <point x="498" y="422"/>
      <point x="424" y="520"/>
      <point x="291" y="520" type="curve" smooth="yes" name="at01"/>
      <point x="151" y="520"/>
      <point x="70" y="411"/>
      <point x="70" y="257" type="curve" smooth="yes"/>
      <point x="70" y="99"/>
      <point x="155" y="-20"/>
    </contour>
    <contour>
      <point x="301" y="30" type="curve" smooth="yes" name="dv02"/>
      <point x="197" y="30"/>
      <point x="130" y="119"/>
      <point x="130" y="256" type="curve" smooth="yes"/>
      <point x="130" y="389"/>
      <point x="194" y="469"/>
      <point x="298" y="469" type="curve" smooth="yes" name="sv01"/>
      <point x="407" y="469"/>
      <point x="482" y="381"/>
      <point x="482" y="253" type="curve" smooth="yes"/>
      <point x="482" y="124"/>
      <point x="407" y="30"/>
    </contour>
  </outline>
</glyph>
<glyph name="m" format="2">
  <advance width="943"/>
  <unicode hex="006D"/>
  <anchor x="472" y="520" name="top"/>
  <anchor x="471" y="-20" name="bottom"/>
  <outline>
    <contour>
      <point x="104" y="0" type="line" name="ab01"/>
      <point x="164" y="0" type="line" name="sh01"/>
      <point x="164" y="500" type="line" name="av01"/>
      <point x="104" y="500" type="line"/>
    </contour>
    <contour>
      <point x="442" y="0" type="line" name="ab01"/>
      <point x="502" y="0" type="line"/>
      <point x="502" y="314" type="line" smooth="yes"/>
      <point x="502" y="461"/>
      <point x="442" y="520"/>
      <point x="355" y="520" type="curve" smooth="yes" name="at01"/>
      <point x="250" y="520"/>
      <point x="167" y="435"/>
      <point x="160" y="327" type="curve"/>
      <point x="161" y="277" type="line"/>
      <point x="164" y="237" type="line" name="iv01"/>
      <point x="164" y="383"/>
      <point x="225" y="469"/>
      <point x="333" y="469" type="curve" smooth="yes" name="sv01"/>
      <point x="404" y="469"/>
      <point x="442" y="431"/>
      <point x="442" y="307" type="curve" smooth="yes"/>
    </contour>
    <contour>
      <point x="779" y="0" type="line" name="ab01"/>
      <point x="839" y="0" type="line"/>
      <point x="839" y="314" type="line" smooth="yes"/>
      <point x="839" y="461"/>
      <point x="779" y="520"/>
      <point x="692" y="520" type="curve" smooth="yes" name="at01"/>
      <point x="587" y="520"/>
      <point x="504" y="435"/>
      <point x="497" y="327" type="curve"/>
      <point x="498" y="277" type="line"/>
      <point x="502" y="237" type="line" name="iv01"/>
      <point x="502" y="383"/>
      <point x="563" y="469"/>
      <point x="670" y="469" type="curve" smooth="yes" name="sv01"/>
      <point x="741" y="469"/>
      <point x="779" y="431"/>
      <point x="779" y="307" type="curve" smooth="yes"/>
    </contour>
  </outline>
</glyph>
<glyph name="t" format="2">
  <advance width="365"/>
  <unicode hex="0074"/>
  <anchor x="166" y="630" name="top"/>
  <anchor x="225" y="-20" name="bottom"/>
  <anchor x="242" y="700" name="topright"/>
  <outline>
    <contour>
      <point x="30" y="450" type="line" name="dv03"/>
      <point x="315" y="450" type="line"/>
      <point x="315" y="500" type="line"/>
      <point x="30" y="500" type="line" name="dv04"/>
    </contour>
    <contour>
      <point x="304" y="49" type="line"/>
      <point x="270" y="35"/>
      <point x="255" y="30"/>
      <point x="241" y="30" type="curve" smooth="yes" name="dv02"/>
      <point x="205" y="30"/>
      <point x="195" y="60"/>
      <point x="195" y="122" type="curve" smooth="yes"/>
      <point x="195" y="620" type="line" name="av01"/>
      <point x="135" y="620" type="line"/>
      <point x="135" y="132" type="line" smooth="yes"/>
      <point x="135" y="29"/>
      <point x="165" y="-21"/>
      <point x="228" y="-21" type="curve" smooth="yes" name="dv01"/>
      <point x="255" y="-21"/>
      <point x="279" y="-12"/>
      <point x="323" y="7" type="curve"/>
    </contour>
  </outline>
</glyph>
<glyph name="ordfeminine" format="2">
  <advance width="549"/>
  <unicode hex="00AA"/>
  <outline>
    <contour>
      <point x="404" y="335" type="line"/>
      <point x="461" y="335" type="line"/>
      <point x="461" y="702" type="line"/>
      <point x="404" y="702" type="line"/>
    </contour>
    <contour>
      <point x="252" y="320" type="curve" smooth="yes"/>
      <point x="353" y="320"/>
      <point x="415" y="404"/>
      <point x="415" y="520" type="curve" smooth="yes"/>
      <point x="415" y="636"/>
      <point x="352" y="720"/>
      <point x="250" y="720" type="curve" smooth="yes"/>
      <point x="153" y="720"/>
      <point x="93" y="643"/>
      <point x="93" y="522" type="curve" smooth="yes"/>
      <point x="93" y="399"/>
      <point x="154" y="320"/>
    </contour>
    <contour>
      <point x="276" y="368" type="curve" smooth="yes"/>
      <point x="194" y="368"/>
      <point x="150" y="421"/>
      <point x="150" y="522" type="curve" smooth="yes"/>
      <point x="150" y="620"/>
      <point x="192" y="672"/>
      <point x="269" y="672" type="curve" smooth="yes"/>
      <point x="354" y="672"/>
      <point x="404" y="609"/>
      <point x="404" y="513" type="curve" smooth="yes"/>
      <point x="404" y="421"/>
      <point x="358" y="368"/>
    </contour>
  </outline>
</glyph>
<glyph name="Eth" format="2">
  <advance width="742"/>
  <unicode hex="00D0"/>
  <outline>
    <contour>
      <point x="154" y="54" type="line" name="sv01"/>
      <point x="154" y="646" type="line" name="sv02"/>
      <point x="332" y="646" type="line" smooth="yes"/>
      <point x="503" y="646"/>
      <point x="608" y="534"/>
      <point x="608" y="346" type="curve" smooth="yes"/>
      <point x="608" y="165"/>
      <point x="503" y="54"/>
      <point x="332" y="54" type="curve" smooth="yes"/>
    </contour>
    <contour>
      <point x="94" y="0" type="line" name="ab01"/>
      <point x="345" y="0" type="line" smooth="yes"/>
      <point x="537" y="0"/>
      <point x="669" y="142"/>
      <point x="669" y="350" type="curve" smooth="yes"/>
      <point x="669" y="557"/>
      <point x="536" y="700"/>
      <point x="345" y="700" type="curve" smooth="yes" name="at01"/>
      <point x="94" y="700" type="line"/>
    </contour>
    <contour>
      <point x="-0.279998" y="337" type="line"/>
      <point x="398.082" y="337" type="line"/>
      <point x="398.082" y="369" type="line"/>
      <point x="-0.279998" y="369" type="line"/>
    </contour>
  </outline>
</glyph>
<glyph name="Oslash" format="2">
  <advance width="795"/>
  <unicode hex="00D8"/>
  <anchor x="398" y="719" name="top"/>
  <anchor x="398" y="-20" name="bottom"/>
  <anchor x="523" y="-1" name="ogonek"/>
  <outline>
    <contour>
      <point x="400" y="35" type="curve" smooth="yes" name="dv02"/>
      <point x="231" y="35"/>
      <point x="134" y="146"/>
      <point x="134" y="350" type="curve" smooth="yes"/>
      <point x="134" y="548"/>
      <point x="230" y="665"/>
      <point x="396" y="665" type="curve" smooth="yes" name="dv03"/>
      <point x="568" y="665"/>
      <point x="661" y="554"/>
      <point x="661" y="350" type="curve" smooth="yes" name="dv05"/>
      <point x="661" y="153"/>
      <point x="560" y="35"/>
    </contour>
    <contour>
      <point x="398" y="-20" type="curve" smooth="yes" name="dv01"/>
      <point x="587" y="-20"/>
      <point x="722" y="110"/>
      <point x="722" y="350" type="curve" smooth="yes" name="dv06"/>
      <point x="722" y="578"/>
      <point x="600" y="720"/>
      <point x="399" y="720" type="curve" smooth="yes" name="dv04"/>
      <point x="204" y="720"/>
      <point x="73" y="587"/>
      <point x="73" y="350" type="curve" smooth="yes"/>
      <point x="73" y="110"/>
      <point x="208" y="-20"/>
    </contour>
    <contour>
      <point x="171.728" y="-67" type="line"/>
      <point x="201.155" y="-67" type="line"/>
      <point x="622.184" y="767.75" type="line"/>
      <point x="592.758" y="767.75" type="line"/>
    </contour>
  </outline>
</glyph>
<glyph name="eth" format="2">
  <advance width="636"/>
  <unicode hex="00F0"/>
  <outline>
    <contour>
      <point x="159" y="645" type="line"/>
      <point x="198.64" y="626.27"/>
      <point x="242.47" y="601.2"/>
      <point x="285.14" y="572.82" type="curve"/>
      <point x="160" y="525" type="line"/>
      <point x="172" y="501" type="line"/>
      <point x="301.41" y="561.8" type="line"/>
      <point x="389.2" y="501.22"/>
      <point x="469.02" y="427.97"/>
      <point x="493" y="369" type="curve"/>
      <point x="462" y="435"/>
      <point x="388" y="471"/>
      <point x="316" y="471" type="curve" smooth="yes"/>
      <point x="192" y="471"/>
      <point x="79" y="377"/>
      <point x="79" y="226" type="curve" smooth="yes"/>
      <point x="79" y="85"/>
      <point x="175" y="-20"/>
      <point x="319" y="-20" type="curve" smooth="yes"/>
      <point x="458" y="-20"/>
      <point x="557" y="79"/>
      <point x="557" y="245" type="curve" smooth="yes"/>
      <point x="557" y="367.61"/>
      <point x="505.91" y="470.25"/>
      <point x="353.79" y="584.87" type="curve"/>
      <point x="502" y="640" type="line"/>
      <point x="491" y="665" type="line"/>
      <point x="339.58" y="595.38" type="line"/>
      <point x="296.12" y="627.05"/>
      <point x="244.96" y="659.71"/>
      <point x="185" y="694" type="curve"/>
    </contour>
    <contour>
      <point x="315" y="31" type="curve" smooth="yes"/>
      <point x="210" y="31"/>
      <point x="139" y="103"/>
      <point x="139" y="223" type="curve" smooth="yes"/>
      <point x="139" y="344"/>
      <point x="211" y="420"/>
      <point x="323" y="420" type="curve" smooth="yes"/>
      <point x="428" y="420"/>
      <point x="497" y="354"/>
      <point x="497" y="234" type="curve" smooth="yes"/>
      <point x="497" y="114"/>
      <point x="427" y="31"/>
    </contour>
  </outline>
</glyph>
<glyph name="aogonek" format="2">
  <advance width="645"/>
  <unicode hex="0105"/>
  <anchor x="323" y="520" name="top"/>
  <anchor x="322" y="-20" name="bottom"/>
  <outline>
    <contour>
      <point x="482" y="0" type="line" name="ab01"/>
      <point x="542" y="0" type="line" name="sh01"/>
      <point x="542" y="500" type="line" name="av01"/>
      <point x="482" y="500" type="line"/>
    </contour>
    <contour>
      <point x="295" y="-20" type="curve" smooth="yes" name="dv01"/>
      <point x="424" y="-20"/>
      <point x="498" y="81"/>
      <point x="498" y="252" type="curve" smooth="yes"/>
      <point x="498" y="422"/>
      <point x="424" y="520"/>
      <point x="291" y="520" type="curve" smooth="yes" name="at01"/>
      <point x="151" y="520"/>
      <point x="70" y="411"/>
      <point x="70" y="257" type="curve" smooth="yes"/>
      <point x="70" y="99"/>
      <point x="155" y="-20"/>
    </contour>
    <contour>
      <point x="301" y="30" type="curve" smooth="yes" name="dv02"/>
      <point x="197" y="30"/>
      <point x="130" y="119"/>
      <point x="130" y="256" type="curve" smooth="yes"/>
      <point x="130" y="389"/>
      <point x="194" y="469"/>
      <point x="298" y="469" type="curve" smooth="yes" name="sv01"/>
      <point x="407" y="469"/>
      <point x="482" y="381"/>
      <point x="482" y="253" type="curve" smooth="yes"/>
      <point x="482" y="124"/>
      <point x="407" y="30"/>
    </contour>
    <contour>
      <point x="543" y="-183" type="line"/>
      <point x="499" y="-171"/>
      <point x="476" y="-143"/>
      <point x="476" y="-103" type="curve" smooth="yes"/>
      <point x="476" y="-62"/>
      <point x="501" y="-22"/>
      <point x="542" y="0" type="curve"/>
      <point x="524" y="3" type="line"/>
      <point x="464" y="-12"/>
      <point x="421" y="-59"/>
      <point x="421" y="-108" type="curve" smooth="yes"/>
      <point x="421" y="-154"/>
      <point x="460" y="-196"/>
      <point x="507" y="-206" type="curve"/>
    </contour>
  </outline>
</glyph>
<glyph name="oe" format="2">
  <advance width="957"/>
  <unicode hex="0153"/>
  <anchor x="479" y="520" name="top"/>
  <anchor x="479" y="-20" name="bottom"/>
  <outline>
    <contour>
      <point x="292.6" y="-20" type="curve" smooth="yes" name="dv01"/>
      <point x="434.15" y="-20"/>
      <point x="510.15" y="79"/>
      <point x="510.15" y="250" type="curve" smooth="yes"/>
      <point x="510.15" y="421"/>
      <point x="434.15" y="520"/>
      <point x="292.6" y="520" type="curve" smooth="yes" name="at01"/>
      <point x="150.1" y="520"/>
      <point x="75.05" y="421"/>
      <point x="75.05" y="250" type="curve" smooth="yes"/>
      <point x="75.05" y="79"/>
      <point x="150.1" y="-20"/>
    </contour>
    <contour>
      <point x="292.6" y="31" type="curve" smooth="yes" name="dv02"/>
      <point x="183.35" y="31"/>
      <point x="132.05" y="105"/>
      <point x="132.05" y="253" type="curve" smooth="yes"/>
      <point x="132.05" y="400"/>
      <point x="186.2" y="469"/>
      <point x="292.6" y="469" type="curve" smooth="yes" name="sv01"/>
      <point x="401.85" y="469"/>
      <point x="453.15" y="397"/>
      <point x="453.15" y="248" type="curve" smooth="yes"/>
      <point x="453.15" y="102"/>
      <point x="399.95" y="31"/>
    </contour>
    <contour>
      <point x="513.45" y="297" type="line" name="sv02"/>
      <point x="524.85" y="415"/>
      <point x="576.15" y="470"/>
      <point x="678.75" y="470" type="curve" smooth="yes" name="sv01"/>
      <point x="776.6" y="470"/>
      <point x="821.25" y="420"/>
      <point x="832.65" y="297" type="curve" name="dv04"/>
    </contour>
    <contour>
      <point x="836.45" y="106" type="line"/>
      <point x="792.75" y="50"/>
      <point x="744.3" y="31"/>
      <point x="686.35" y="31" type="curve" smooth="yes" name="dv02"/>
      <point x="568.55" y="31"/>
      <point x="511.55" y="110"/>
      <point x="511.55" y="247" type="curve" name="sv04"/>
      <point x="893.45" y="247" type="line" name="dv03"/>
      <point x="893.45" y="421"/>
      <point x="816.5" y="520"/>
      <point x="677.8" y="520" type="curve" smooth="yes" name="at01"/>
      <point x="543.85" y="520"/>
      <point x="453.6" y="427"/>
      <point x="453.6" y="254" type="curve" smooth="yes" name="sv03"/>
      <point x="453.6" y="72"/>
      <point x="553.35" y="-20"/>
      <point x="687.3" y="-20" type="curve" smooth="yes" name="dv01"/>
      <point x="771.85" y="-20"/>
      <point x="832.65" y="17"/>
      <point x="870.65" y="70" type="curve"/>
    </contour>
  </outline>
</glyph>
<glyph name="tcedilla" format="2">
  <advance width="365"/>
  <unicode hex="0163"/>
  <anchor x="166" y="630" name="top"/>
  <anchor x="242" y="700" name="topright"/>
  <anchor x="205" y="-218" name="bottom"/>
  <outline>
    <contour>
      <point x="30" y="450" type="line" name="dv03"/>
      <point x="315" y="450" type="line"/>
      <point x="315" y="500" type="line"/>
      <point x="30" y="500" type="line" name="dv04"/>
    </contour>
    <contour>
      <point x="304" y="49" type="line"/>
      <point x="270" y="35"/>
      <point x="255" y="30"/>
      <point x="241" y="30" type="curve" smooth="yes" name="dv02"/>
      <point x="205" y="30"/>
      <point x="195" y="60"/>
      <point x="195" y="122" type="curve" smooth="yes"/>
      <point x="195" y="620" type="line" name="av01"/>
      <point x="135" y="620" type="line"/>
      <point x="135" y="132" type="line" smooth="yes"/>
      <point x="135" y="29"/>
      <point x="165" y="-21"/>
      <point x="228" y="-21" type="curve" smooth="yes" name="dv01"/>
      <point x="255" y="-21"/>
      <point x="279" y="-12"/>
      <point x="323" y="7" type="curve"/>
    </contour>
    <contour>
      <point x="114" y="-205" type="line"/>
      <point x="134" y="-211"/>
      <point x="157" y="-218"/>
      <point x="195" y="-218" type="curve" smooth="yes"/>
      <point x="273" y="-218"/>
      <point x="314" y="-188"/>
      <point x="314" y="-140" type="curve" smooth="yes"/>
      <point x="314" y="-92"/>
      <point x="274" y="-64"/>
      <point x="216" y="-64" type="curve"/>
      <point x="256.194" y="12.1373" type="line"/>
      <point x="211.194" y="12.1373" type="line"/>
      <point x="161" y="-82" type="line"/>
      <point x="173" y="-79"/>
      <point x="183" y="-78"/>
      <point x="193" y="-78" type="curve" smooth="yes"/>
      <point x="238" y="-78"/>
      <point x="262" y="-98"/>
      <point x="262" y="-132" type="curve" smooth="yes"/>
      <point x="262" y="-166"/>
      <point x="237" y="-188"/>
      <point x="192" y="-188" type="curve" smooth="yes"/>
      <point x="171" y="-188"/>
      <point x="147" y="-183"/>
      <point x="129" y="-177" type="curve"/>
    </contour>
  </outline>
</glyph>
<glyph name="Tbar" format="2">
  <advance width="648"/>
  <unicode hex="0166"/>
  <anchor x="324" y="719" name="top"/>
  <anchor x="324" y="-20" name="bottom"/>
  <outline>
    <contour>
      <point x="294" y="0" type="line" name="ab01"/>
      <point x="354" y="0" type="line"/>
      <point x="354" y="646" type="line" name="sv02"/>
      <point x="597" y="646" type="line" name="sv03"/>
      <point x="597" y="700" type="line"/>
      <point x="51" y="700" type="line" name="at01"/>
      <point x="51" y="646" type="line" name="sv01"/>
      <point x="294" y="646" type="line"/>
    </contour>
    <contour>
      <point x="96.5" y="337" type="line"/>
      <point x="551.5" y="337" type="line"/>
      <point x="551.5" y="369" type="line"/>
      <point x="96.5" y="369" type="line"/>
    </contour>
  </outline>
</glyph>
<glyph name="caroncomb" format="2">
  <advance width="346"/>
  <unicode hex="030C"/>
  <anchor x="173" y="702" name="top"/>
  <anchor x="173" y="500" name="_top"/>
  <outline>
    <contour>
      <point x="139" y="550" type="line"/>
      <point x="207" y="550" type="line"/>
      <point x="309" y="701" type="line"/>
      <point x="244" y="701" type="line"/>
      <point x="173" y="583" type="line"/>
      <point x="102" y="701" type="line"/>
      <point x="37" y="701" type="line"/>
    </contour>
  </outline>
</glyph>
<glyph name="zeta" format="2">
  <advance width="560"/>
  <unicode hex="03B6"/>
  <anchor x="280" y="721" name="topgr"/>
  <outline>
    <contour>
      <point x="395" y="-200" type="line"/>
      <point x="412" y="-178"/>
      <point x="421" y="-142"/>
      <point x="421" y="-113" type="curve" smooth="yes"/>
      <point x="421" y="-54"/>
      <point x="385" y="-20"/>
      <point x="309" y="-20" type="curve" smooth="yes"/>
      <point x="181" y="-20"/>
      <point x="94" y="78"/>
      <point x="94" y="236" type="curve" smooth="yes"/>
      <point x="94" y="386"/>
      <point x="181" y="527"/>
      <point x="379" y="650" type="curve"/>
      <point x="79" y="650" type="line"/>
      <point x="79" y="700" type="line"/>
      <point x="462" y="700" type="line"/>
      <point x="462" y="657" type="line"/>
      <point x="220" y="485"/>
      <point x="154" y="371"/>
      <point x="154" y="234" type="curve" smooth="yes"/>
      <point x="154" y="96"/>
      <point x="221" y="31"/>
      <point x="331" y="31" type="curve" smooth="yes"/>
      <point x="421" y="31"/>
      <point x="481" y="-26"/>
      <point x="481" y="-110" type="curve" smooth="yes"/>
      <point x="481" y="-151"/>
      <point x="465" y="-185"/>
      <point x="455" y="-200" type="curve"/>
    </contour>
  </outline>
</glyph>
<glyph name="theta" format="2">
  <advance width="644"/>
  <unicode hex="03B8"/>
  <anchor x="322" y="721" name="topgr"/>
  <outline>
    <contour>
      <point x="323" y="-20" type="curve" smooth="yes"/>
      <point x="482" y="-20"/>
      <point x="565" y="109"/>
      <point x="565" y="345" type="curve" smooth="yes"/>
      <point x="565" y="586"/>
      <point x="479" y="720"/>
      <point x="323" y="720" type="curve" smooth="yes"/>
      <point x="167" y="720"/>
      <point x="79" y="586"/>
      <point x="79" y="346" type="curve" smooth="yes"/>
      <point x="79" y="110"/>
      <point x="164" y="-20"/>
    </contour>
    <contour>
      <point x="324" y="30" type="curve" smooth="yes"/>
      <point x="197" y="30"/>
      <point x="140" y="127"/>
      <point x="140" y="349" type="curve" smooth="yes"/>
      <point x="140" y="565"/>
      <point x="194" y="670"/>
      <point x="323" y="670" type="curve" smooth="yes"/>
      <point x="449" y="670"/>
      <point x="504" y="571"/>
      <point x="504" y="346" type="curve" smooth="yes"/>
      <point x="504" y="126"/>
      <point x="451" y="30"/>
    </contour>
    <contour>
      <point x="136" y="330" type="line"/>
      <point x="508" y="330" type="line"/>
      <point x="508" y="370" type="line"/>
      <point x="136" y="370" type="line"/>
    </contour>
  </outline>
</glyph>
<glyph name="Kaisymbol" format="2">
  <advance width="670"/>
  <unicode hex="03CF"/>
  <outline>
    <contour>
      <point x="98" y="-130" type="line"/>
      <point x="151" y="-186"/>
      <point x="230" y="-221"/>
      <point x="339" y="-221" type="curve" smooth="yes"/>
      <point x="506" y="-221"/>
      <point x="613" y="-138"/>
      <point x="613" y="0" type="curve"/>
      <point x="541" y="17" type="line"/>
      <point x="543" y="1" type="line"/>
      <point x="543" y="-124"/>
      <point x="460" y="-166"/>
      <point x="344" y="-166" type="curve" smooth="yes"/>
      <point x="245" y="-166"/>
      <point x="170" y="-135"/>
      <point x="98" y="-65" type="curve"/>
    </contour>
    <contour>
      <point x="98" y="0" type="line" name="av01"/>
      <point x="158" y="0" type="line"/>
      <point x="158" y="700" type="line" name="av02"/>
      <point x="98" y="700" type="line"/>
    </contour>
    <contour>
      <point x="130" y="335" type="line"/>
      <point x="357" y="335" type="line"/>
      <point x="543" y="0" type="line"/>
      <point x="613" y="0" type="line"/>
      <point x="401" y="367" type="line"/>
      <point x="609" y="700" type="line"/>
      <point x="538" y="700" type="line"/>
      <point x="351" y="389" type="line"/>
      <point x="121" y="389" type="line"/>
    </contour>
  </outline>
</glyph>
<glyph name="Ljecyr" format="2">
  <advance width="1014"/>
  <unicode hex="0409"/>
  <outline>
    <contour>
      <point x="49" y="9" type="line"/>
      <point x="88" y="-14"/>
      <point x="107" y="-20"/>
      <point x="130" y="-20" type="curve" smooth="yes"/>
      <point x="225.343" y="-20"/>
      <point x="258.824" y="83.7903"/>
      <point x="267.484" y="412.752" type="curve" smooth="yes"/>
      <point x="269.27" y="480.575"/>
      <point x="270" y="557.97"/>
      <point x="270" y="646" type="curve"/>
      <point x="563" y="646" type="line"/>
      <point x="563" y="0" type="line"/>
      <point x="725" y="0" type="line" smooth="yes"/>
      <point x="890" y="0"/>
      <point x="945" y="85.8541"/>
      <point x="945" y="203.594" type="curve" smooth="yes"/>
      <point x="945" y="320.244"/>
      <point x="891" y="411"/>
      <point x="725" y="411" type="curve" smooth="yes"/>
      <point x="623" y="411" type="line"/>
      <point x="623" y="700" type="line"/>
      <point x="210" y="700" type="line"/>
      <point x="210" y="607.024"/>
      <point x="209.561" y="526.061"/>
      <point x="208.505" y="455.771" type="curve" smooth="yes"/>
      <point x="203.599" y="129.158"/>
      <point x="185.374" y="33"/>
      <point x="136" y="33" type="curve" smooth="yes"/>
      <point x="120" y="33"/>
      <point x="99" y="43"/>
      <point x="67" y="61" type="curve"/>
    </contour>
    <contour>
      <point x="623" y="54" type="line"/>
      <point x="623" y="357" type="line"/>
      <point x="726" y="357" type="line" smooth="yes"/>
      <point x="832" y="357"/>
      <point x="884" y="315.323"/>
      <point x="884" y="200.431" type="curve" smooth="yes"/>
      <point x="884" y="87.7918"/>
      <point x="834" y="54"/>
      <point x="701" y="54" type="curve" smooth="yes"/>
    </contour>
  </outline>
</glyph>
<glyph name="Hardcyr" format="2">
  <advance width="735"/>
  <unicode hex="042A"/>
  <outline>
    <contour>
      <point x="51" y="646" type="line"/>
      <point x="214" y="646" type="line"/>
      <point x="247" y="694" type="line"/>
      <point x="247" y="700" type="line"/>
      <point x="51" y="700" type="line"/>
    </contour>
    <contour>
      <point x="203" y="0" type="line"/>
      <point x="445" y="0" type="line" smooth="yes"/>
      <point x="580" y="0"/>
      <point x="666" y="83"/>
      <point x="666" y="211" type="curve" smooth="yes"/>
      <point x="666" y="341"/>
      <point x="578" y="409"/>
      <point x="443" y="409" type="curve" smooth="yes"/>
      <point x="263" y="409" type="line"/>
      <point x="263" y="700" type="line"/>
      <point x="203" y="700" type="line"/>
    </contour>
    <contour>
      <point x="263" y="54" type="line"/>
      <point x="263" y="355" type="line"/>
      <point x="442" y="355" type="line" smooth="yes"/>
      <point x="559" y="355"/>
      <point x="605" y="293"/>
      <point x="605" y="208" type="curve" smooth="yes"/>
      <point x="605" y="123"/>
      <point x="559" y="54"/>
      <point x="442" y="54" type="curve" smooth="yes"/>
    </contour>
  </outline>
</glyph>
<glyph name="gecyr" format="2">
  <advance width="441"/>
  <unicode hex="0433"/>
  <anchor x="241" y="520" name="top"/>
  <anchor x="241" y="-20" name="bottom"/>
  <outline>
    <contour>
      <point x="104" y="0" type="line"/>
      <point x="164" y="0" type="line"/>
      <point x="164" y="449" type="line"/>
      <point x="384" y="449" type="line"/>
      <point x="384" y="500" type="line"/>
      <point x="104" y="500" type="line"/>
    </contour>
  </outline>
</glyph>
<glyph name="zhecyr" format="2">
  <advance width="800"/>
  <unicode hex="0436"/>
  <anchor x="400" y="520" name="top"/>
  <anchor x="398" y="-20" name="bottom"/>
  <outline>
    <contour>
      <point x="84" y="500" type="line" name="av02"/>
      <point x="101" y="356" type="line"/>
      <point x="107.96" y="307.92"/>
      <point x="127.73" y="274.64"/>
      <point x="160.3" y="256.69" type="curve"/>
      <point x="46" y="0" type="line"/>
      <point x="113" y="0" type="line" name="ab02"/>
      <point x="220.32" y="241.23" type="line"/>
      <point x="370" y="241" type="line" name="dv01"/>
      <point x="370" y="0" type="line" name="ab01"/>
      <point x="430" y="0" type="line"/>
      <point x="430" y="241" type="line" name="dv01"/>
      <point x="579.54" y="241.29" type="line"/>
      <point x="687" y="0" type="line" name="ab02"/>
      <point x="754" y="0" type="line"/>
      <point x="639.19" y="257.58" type="line"/>
      <point x="671.47" y="276.2"/>
      <point x="691.08" y="310.16"/>
      <point x="698" y="358" type="curve"/>
      <point x="716" y="500" type="line" name="av02"/>
      <point x="659" y="500" type="line"/>
      <point x="647" y="379" type="line"/>
      <point x="640" y="320"/>
      <point x="621" y="291"/>
      <point x="549" y="291" type="curve" smooth="yes"/>
      <point x="430" y="291" type="line" name="dv02"/>
      <point x="430" y="500" type="line"/>
      <point x="370" y="500" type="line" name="av01"/>
      <point x="370" y="291" type="line" name="dv02"/>
      <point x="251" y="291" type="line" smooth="yes"/>
      <point x="179" y="291"/>
      <point x="160" y="320"/>
      <point x="153" y="379" type="curve"/>
      <point x="141" y="500" type="line"/>
    </contour>
  </outline>
</glyph>
<glyph name="elcyr" format="2">
  <advance width="600"/>
  <unicode hex="043B"/>
  <outline>
    <contour>
      <point x="39" y="-16" type="line"/>
      <point x="52" y="-18"/>
      <point x="72" y="-20"/>
      <point x="85" y="-20" type="curve" smooth="yes"/>
      <point x="166" y="-20"/>
      <point x="205" y="66"/>
      <point x="205" y="450" type="curve"/>
      <point x="437" y="450" type="line"/>
      <point x="437" y="0" type="line"/>
      <point x="497" y="0" type="line"/>
      <point x="497" y="500" type="line"/>
      <point x="145" y="500" type="line"/>
      <point x="145" y="199"/>
      <point x="135" y="30"/>
      <point x="79" y="30" type="curve" smooth="yes"/>
      <point x="67" y="30"/>
      <point x="60" y="32"/>
      <point x="50" y="34" type="curve"/>
    </contour>
  </outline>
</glyph>
<glyph name="emcyr" format="2">
  <advance width="689"/>
  <unicode hex="043C"/>
  <outline>
    <contour>
      <point x="100" y="0" type="line"/>
      <point x="160" y="0" type="line"/>
      <point x="160" y="375" type="line"/>
      <point x="313" y="120" type="line"/>
      <point x="376" y="120" type="line"/>
      <point x="529" y="375" type="line"/>
      <point x="529" y="0" type="line"/>
      <point x="589" y="0" type="line"/>
      <point x="589" y="500" type="line"/>
      <point x="537" y="500" type="line"/>
      <point x="344" y="179" type="line"/>
      <point x="151" y="500" type="line"/>
      <point x="100" y="500" type="line"/>
    </contour>
  </outline>
</glyph>
<glyph name="checyr" format="2">
  <advance width="595"/>
  <unicode hex="0447"/>
  <anchor x="298" y="-20" name="bottom"/>
  <anchor x="298" y="520" name="top"/>
  <outline>
    <contour>
      <point x="435" y="0" type="line" name="ab01"/>
      <point x="495" y="0" type="line" name="sh01"/>
      <point x="495" y="500" type="line" name="av01"/>
      <point x="435" y="500" type="line"/>
      <point x="435" y="376" type="line" smooth="yes"/>
      <point x="435" y="278"/>
      <point x="349" y="225"/>
      <point x="263.63" y="225" type="curve" smooth="yes"/>
      <point x="192.79" y="225"/>
      <point x="156" y="259.48"/>
      <point x="156" y="340" type="curve" smooth="yes"/>
      <point x="156" y="500" type="line"/>
      <point x="96" y="500" type="line"/>
      <point x="96" y="340" type="line" smooth="yes"/>
      <point x="96" y="223.5"/>
      <point x="154.5" y="175"/>
      <point x="252.26" y="175" type="curve" smooth="yes"/>
      <point x="336.01" y="175"/>
      <point x="406.86" y="210.6"/>
      <point x="435" y="279.05" type="curve"/>
    </contour>
  </outline>
</glyph>
<glyph name="softcyr" format="2">
  <advance width="536"/>
  <unicode hex="044C"/>
  <anchor x="268" y="-20" name="bottom"/>
  <anchor x="268" y="520" name="top"/>
  <outline>
    <contour>
      <point x="100" y="0" type="line"/>
      <point x="295" y="0" type="line" smooth="yes"/>
      <point x="401" y="0"/>
      <point x="466" y="61"/>
      <point x="466" y="154" type="curve" smooth="yes"/>
      <point x="466" y="250"/>
      <point x="397" y="305"/>
      <point x="282" y="305" type="curve" smooth="yes"/>
      <point x="115" y="305" type="line"/>
      <point x="115" y="255" type="line"/>
      <point x="288" y="255" type="line" smooth="yes"/>
      <point x="360" y="255"/>
      <point x="406" y="217"/>
      <point x="406" y="152" type="curve" smooth="yes"/>
      <point x="406" y="88"/>
      <point x="361" y="50"/>
      <point x="281" y="50" type="curve" smooth="yes"/>
      <point x="160" y="50" type="line"/>
      <point x="160" y="500" type="line"/>
      <point x="100" y="500" type="line"/>
    </contour>
  </outline>
</glyph>
<glyph name="ljecyr" format="2">
  <advance width="820"/>
  <unicode hex="0459"/>
  <outline>
    <contour>
      <point x="39" y="-16" type="line"/>
      <point x="52" y="-18"/>
      <point x="72" y="-20"/>
      <point x="85" y="-20" type="curve" smooth="yes"/>
      <point x="148.465" y="-20"/>
      <point x="186.146" y="32.7948"/>
      <point x="199.486" y="240.355" type="curve" smooth="yes"/>
      <point x="203.172" y="297.705"/>
      <point x="205" y="366.869"/>
      <point x="205" y="450" type="curve"/>
      <point x="407" y="450" type="line"/>
      <point x="407" y="0" type="line"/>
      <point x="596" y="0" type="line" smooth="yes"/>
      <point x="691" y="0"/>
      <point x="750" y="57"/>
      <point x="750" y="149.22" type="curve" smooth="yes"/>
      <point x="750" y="237.32"/>
      <point x="702" y="285"/>
      <point x="592" y="285" type="curve" smooth="yes"/>
      <point x="467" y="285" type="line"/>
      <point x="467" y="500" type="line"/>
      <point x="145" y="500" type="line"/>
      <point x="145" y="397.558"/>
      <point x="143.842" y="310.405"/>
      <point x="140.106" y="240" type="curve" smooth="yes"/>
      <point x="132.865" y="103.541"/>
      <point x="115.941" y="30"/>
      <point x="79" y="30" type="curve" smooth="yes"/>
      <point x="67" y="30"/>
      <point x="60" y="32"/>
      <point x="50" y="34" type="curve"/>
    </contour>
    <contour>
      <point x="467" y="50" type="line"/>
      <point x="467" y="235" type="line"/>
      <point x="595" y="235" type="line" smooth="yes"/>
      <point x="660" y="235"/>
      <point x="690" y="206.45"/>
      <point x="690" y="145.13" type="curve" smooth="yes"/>
      <point x="690" y="80.65"/>
      <point x="659" y="50"/>
      <point x="597" y="50" type="curve" smooth="yes"/>
    </contour>
  </outline>
</glyph>
<glyph name="Germandbls" format="2">
  <advance width="765"/>
  <unicode hex="1E9E"/>
  <outline>
    <contour>
      <point x="116" y="0" type="line"/>
      <point x="176" y="0" type="line"/>
      <point x="176" y="507" type="line" smooth="yes"/>
      <point x="176" y="607"/>
      <point x="238" y="665"/>
      <point x="387" y="665" type="curve" smooth="yes"/>
      <point x="450" y="665"/>
      <point x="511" y="651"/>
      <point x="546" y="632" type="curve"/>
      <point x="470" y="559" type="line" smooth="yes"/>
      <point x="420" y="511"/>
      <point x="392" y="468"/>
      <point x="392" y="418" type="curve" smooth="yes"/>
      <point x="392" y="272"/>
      <point x="635" y="270"/>
      <point x="635" y="144" type="curve" smooth="yes"/>
      <point x="635" y="82"/>
      <point x="580.338" y="35"/>
      <point x="493.25" y="35" type="curve" smooth="yes"/>
      <point x="428.397" y="35"/>
      <point x="383" y="61"/>
      <point x="349" y="111" type="curve"/>
      <point x="313" y="75" type="line"/>
      <point x="349" y="18"/>
      <point x="406.676" y="-20"/>
      <point x="494.608" y="-20" type="curve" smooth="yes"/>
      <point x="616.578" y="-20"/>
      <point x="696" y="54"/>
      <point x="696" y="150" type="curve" smooth="yes"/>
      <point x="696" y="313"/>
      <point x="453" y="322"/>
      <point x="453" y="424" type="curve" smooth="yes"/>
      <point x="453" y="453"/>
      <point x="472" y="479"/>
      <point x="499" y="505" type="curve" smooth="yes"/>
      <point x="647" y="645" type="line"/>
      <point x="594" y="690"/>
      <point x="500" y="720"/>
      <point x="398" y="720" type="curve" smooth="yes"/>
      <point x="204" y="720"/>
      <point x="116" y="651"/>
      <point x="116" y="499" type="curve" smooth="yes"/>
    </contour>
  </outline>
</glyph>
<glyph name="endash" format="2">
  <advance width="555"/>
  <unicode hex="2013"/>
  <outline>
    <contour>
      <point x="50" y="263" type="line"/>
      <point x="505" y="263" type="line"/>
      <point x="505" y="295" type="line"/>
      <point x="50" y="295" type="line"/>
    </contour>
  </outline>
</glyph>
<glyph name="trademark" format="2">
  <advance width="1016"/>
  <unicode hex="2122"/>
  <outline>
    <contour>
      <point x="206" y="248" type="line"/>
      <point x="265" y="248" type="line"/>
      <point x="265" y="650" type="line"/>
      <point x="420" y="650" type="line"/>
      <point x="420" y="700" type="line"/>
      <point x="51" y="700" type="line"/>
      <point x="51" y="650" type="line"/>
      <point x="206" y="650" type="line"/>
    </contour>
    <contour>
      <point x="490" y="248" type="line"/>
      <point x="549" y="248" type="line"/>
      <point x="549" y="567" type="line"/>
      <point x="691" y="248" type="line"/>
      <point x="736" y="248" type="line"/>
      <point x="878" y="567" type="line"/>
      <point x="878" y="248" type="line"/>
      <point x="937" y="248" type="line"/>
      <point x="937" y="700" type="line"/>
      <point x="887" y="700" type="line"/>
      <point x="713" y="310" type="line"/>
      <point x="539" y="700" type="line"/>
      <point x="490" y="700" type="line"/>
    </contour>
  </outline>
</glyph>
<glyph name="approxequal" format="2">
  <advance width="542"/>
  <unicode hex="2248"/>
  <outline>
    <contour>
      <point x="40" y="323" type="line"/>
      <point x="58" y="366"/>
      <point x="108" y="387"/>
      <point x="153" y="387" type="curve" smooth="yes"/>
      <point x="183" y="387"/>
      <point x="203.968" y="376.958"/>
      <point x="244" y="346" type="curve" smooth="yes"/>
      <point x="278.968" y="318.958"/>
      <point x="302" y="306"/>
      <point x="344" y="306" type="curve" smooth="yes"/>
      <point x="399" y="306"/>
      <point x="445" y="328"/>
      <point x="469" y="409" type="curve"/>
      <point x="459" y="409" type="line"/>
      <point x="442" y="369"/>
      <point x="408" y="357"/>
      <point x="369" y="357" type="curve" smooth="yes"/>
      <point x="333" y="357"/>
      <point x="308.965" y="366.956"/>
      <point x="272" y="396" type="curve" smooth="yes"/>
      <point x="238.965" y="421.956"/>
      <point x="212" y="436"/>
      <point x="175" y="436" type="curve" smooth="yes"/>
      <point x="117" y="436"/>
      <point x="56" y="401"/>
      <point x="30" y="323" type="curve"/>
    </contour>
    <contour>
      <point x="42" y="166" type="line"/>
      <point x="60" y="209"/>
      <point x="110" y="230"/>
      <point x="155" y="230" type="curve" smooth="yes"/>
      <point x="185" y="230"/>
      <point x="205.968" y="219.958"/>
      <point x="246" y="189" type="curve" smooth="yes"/>
      <point x="280.968" y="161.958"/>
      <point x="304" y="149"/>
      <point x="346" y="149" type="curve" smooth="yes"/>
      <point x="401" y="149"/>
      <point x="447" y="171"/>
      <point x="471" y="252" type="curve"/>
      <point x="461" y="252" type="line"/>
      <point x="444" y="212"/>
      <point x="410" y="200"/>
      <point x="371" y="200" type="curve" smooth="yes"/>
      <point x="335" y="200"/>
      <point x="310.965" y="209.956"/>
      <point x="274" y="239" type="curve" smooth="yes"/>
      <point x="240.965" y="264.956"/>
      <point x="214" y="279"/>
      <point x="177" y="279" type="curve" smooth="yes"/>
      <point x="119" y="279"/>
      <point x="58" y="244"/>
      <point x="32" y="166" type="curve"/>
    </contour>
  </outline>
</glyph>
<glyph name="Ccedilla.ss12" format="2">
  <advance width="669"/>
  <anchor x="357" y="719" name="top"/>
  <anchor x="357" y="-217" name="bottom"/>
  <outline>
    <contour>
      <point x="589.307" y="130.222" type="line"/>
      <point x="537.029" y="69.4877"/>
      <point x="453.701" y="35.2224"/>
      <point x="370" y="35.2224" type="curve" smooth="yes"/>
      <point x="220.198" y="35.2224"/>
      <point x="133" y="151.404"/>
      <point x="133" y="351" type="curve" smooth="yes"/>
      <point x="133" y="554.628"/>
      <point x="212.791" y="665"/>
      <point x="360" y="665" type="curve" smooth="yes"/>
      <point x="443.701" y="665"/>
      <point x="532.347" y="627.855"/>
      <point x="584.625" y="567.12" type="curve"/>
      <point x="590.685" y="615.699" type="line"/>
      <point x="550.238" y="677.014"/>
      <point x="457.142" y="720"/>
      <point x="359" y="720" type="curve" smooth="yes"/>
      <point x="170" y="720"/>
      <point x="73" y="576"/>
      <point x="73" y="349" type="curve" smooth="yes"/>
      <point x="73" y="122"/>
      <point x="180" y="-19.7776"/>
      <point x="369" y="-19.7776" type="curve" smooth="yes"/>
      <point x="457.142" y="-19.7776"/>
      <point x="554.861" y="19.9073"/>
      <point x="595.307" y="81.2224" type="curve"/>
    </contour>
    <contour>
      <point x="266" y="-204" type="line"/>
      <point x="286" y="-210"/>
      <point x="309" y="-217"/>
      <point x="347" y="-217" type="curve" smooth="yes"/>
      <point x="425" y="-217"/>
      <point x="466" y="-187"/>
      <point x="466" y="-139" type="curve" smooth="yes"/>
      <point x="466" y="-91"/>
      <point x="426" y="-63"/>
      <point x="368" y="-63" type="curve"/>
      <point x="408.194" y="13.1373" type="line"/>
      <point x="363.194" y="13.1373" type="line"/>
      <point x="313" y="-81" type="line"/>
      <point x="325" y="-78"/>
      <point x="335" y="-77"/>
      <point x="345" y="-77" type="curve" smooth="yes"/>
      <point x="390" y="-77"/>
      <point x="414" y="-97"/>
      <point x="414" y="-131" type="curve" smooth="yes"/>
      <point x="414" y="-165"/>
      <point x="389" y="-187"/>
      <point x="344" y="-187" type="curve" smooth="yes"/>
      <point x="323" y="-187"/>
      <point x="299" y="-182"/>
      <point x="281" y="-176" type="curve"/>
    </contour>
  </outline>
</glyph>
<glyph name="Efcyr.loclBGR" format="2">
  <advance width="836"/>
  <outline>
    <contour>
      <point x="388" y="-78" type="line"/>
      <point x="448" y="-78" type="line"/>
      <point x="448" y="1.56873" type="line"/>
      <point x="637" y="1.56873"/>
      <point x="763" y="143.263"/>
      <point x="763" y="355.803" type="curve" smooth="yes"/>
      <point x="763" y="562.58"/>
      <point x="637" y="700.431"/>
      <point x="448" y="700.431" type="curve"/>
      <point x="448" y="780" type="line"/>
      <point x="388" y="780" type="line"/>
      <point x="388" y="700.431" type="line"/>
      <point x="199" y="700.431"/>
      <point x="73" y="562.58"/>
      <point x="73" y="355.803" type="curve" smooth="yes"/>
      <point x="73" y="143.263"/>
      <point x="199" y="1.56873"/>
      <point x="388" y="1.56873" type="curve"/>
    </contour>
    <contour>
      <point x="448" y="645.728" type="line"/>
      <point x="600.4" y="645.728"/>
      <point x="702" y="529.634"/>
      <point x="702" y="355.493" type="curve" smooth="yes"/>
      <point x="702" y="175.961"/>
      <point x="600.4" y="56.2723"/>
      <point x="448" y="56.2723" type="curve"/>
    </contour>
    <contour>
      <point x="388" y="56.2722" type="line"/>
      <point x="235.6" y="56.2722"/>
      <point x="134" y="174.961"/>
      <point x="134" y="352.995" type="curve" smooth="yes"/>
      <point x="134" y="528.635"/>
      <point x="235.6" y="645.728"/>
      <point x="388" y="645.728" type="curve"/>
    </contour>
  </outline>
</glyph>
<glyph name="Eng.ss07" format="2">
  <advance width="752"/>
  <anchor x="376" y="719" name="top"/>
  <anchor x="390" y="-221" name="bottom"/>
  <outline>
    <contour>
      <point x="107" y="0" type="line"/>
      <point x="167" y="0" type="line" name="ab01"/>
      <point x="167" y="589" type="line" name="iv01"/>
      <point x="595" y="0" type="line" name="ab02"/>
      <point x="645" y="211.197" type="line"/>
      <point x="645" y="700" type="line" name="at01"/>
      <point x="585" y="700" type="line"/>
      <point x="585" y="111" type="line" name="iv02"/>
      <point x="157" y="700" type="line" name="at02"/>
      <point x="107" y="700" type="line"/>
    </contour>
    <contour>
      <point x="364.5" y="-221" type="line"/>
      <point x="571.5" y="-221"/>
      <point x="645.5" y="-145"/>
      <point x="645.5" y="65" type="curve" smooth="yes"/>
      <point x="645.5" y="603" type="line"/>
      <point x="585.5" y="603" type="line"/>
      <point x="585.5" y="65" type="line" smooth="yes"/>
      <point x="585.5" y="-119"/>
      <point x="534.5" y="-167"/>
      <point x="364.5" y="-167" type="curve"/>
    </contour>
  </outline>
</glyph>
<glyph name="Eng.ss10" format="2">
  <advance width="752"/>
  <anchor x="376" y="720" name="top"/>
  <anchor x="386" y="-192" name="bottom"/>
  <outline>
    <contour>
      <point x="107" y="0" type="line"/>
      <point x="167" y="0" type="line" name="ab01"/>
      <point x="167" y="589" type="line" name="iv01"/>
      <point x="595" y="0" type="line" name="ab02"/>
      <point x="645" y="81.5836" type="line"/>
      <point x="645" y="700" type="line" name="at01"/>
      <point x="585" y="700" type="line"/>
      <point x="585" y="111" type="line" name="iv02"/>
      <point x="157" y="700" type="line" name="at02"/>
      <point x="107" y="700" type="line"/>
    </contour>
    <contour>
      <point x="234.5" y="-104" type="line"/>
      <point x="274.5" y="-164"/>
      <point x="349.275" y="-218"/>
      <point x="450.893" y="-218" type="curve" smooth="yes"/>
      <point x="581.27" y="-218"/>
      <point x="645.5" y="-142"/>
      <point x="645.5" y="11" type="curve" smooth="yes"/>
      <point x="645.5" y="502" type="line"/>
      <point x="585.5" y="502" type="line"/>
      <point x="585.5" y="12" type="line" smooth="yes"/>
      <point x="585.5" y="-106"/>
      <point x="544.984" y="-163"/>
      <point x="452.644" y="-163" type="curve" smooth="yes"/>
      <point x="412.128" y="-163"/>
      <point x="324.5" y="-159"/>
      <point x="257.5" y="-38" type="curve"/>
    </contour>
  </outline>
</glyph>
<glyph name="Euro.ss09" format="2">
  <advance width="730"/>
  <outline>
    <contour>
      <point x="35" y="409" type="line"/>
      <point x="462" y="409" type="line"/>
      <point x="471" y="429" type="line"/>
      <point x="179" y="429" type="line"/>
      <point x="194" y="593"/>
      <point x="291" y="665"/>
      <point x="392" y="665" type="curve" smooth="yes"/>
      <point x="493" y="665"/>
      <point x="562" y="611"/>
      <point x="597" y="485" type="curve"/>
      <point x="657" y="485" type="line"/>
      <point x="623" y="620"/>
      <point x="537" y="720"/>
      <point x="394" y="720" type="curve" smooth="yes"/>
      <point x="241" y="720"/>
      <point x="132" y="598"/>
      <point x="119" y="429" type="curve"/>
      <point x="44" y="429" type="line"/>
    </contour>
    <contour>
      <point x="34" y="275" type="line"/>
      <point x="118" y="275" type="line"/>
      <point x="131" y="100"/>
      <point x="235" y="-20"/>
      <point x="391" y="-20" type="curve" smooth="yes"/>
      <point x="547" y="-20"/>
      <point x="631" y="106"/>
      <point x="657" y="261" type="curve"/>
      <point x="597" y="261" type="line"/>
      <point x="573" y="105"/>
      <point x="486" y="35"/>
      <point x="383" y="35" type="curve" smooth="yes"/>
      <point x="277" y="35"/>
      <point x="193" y="122"/>
      <point x="178" y="275" type="curve"/>
      <point x="435" y="275" type="line"/>
      <point x="445" y="295" type="line"/>
      <point x="44" y="295" type="line"/>
    </contour>
  </outline>
</glyph>
<glyph name="G.ss09" format="2">
  <advance width="780"/>
  <anchor x="390" y="-19" name="bottom"/>
  <anchor x="390" y="719" name="top"/>
  <outline>
    <contour>
      <point x="325" y="292" type="line" name="dv05"/>
      <point x="623" y="292" type="line" name="dv07"/>
      <point x="627.94" y="272.24" type="line"/>
      <point x="696" y="0" type="line" name="dv15"/>
      <point x="707" y="0" type="line" name="dv14"/>
      <point x="707" y="342" type="line" name="iv02"/>
      <point x="325" y="342" type="line" name="dv06"/>
    </contour>
    <contour>
      <point x="617" y="324" type="line" name="iv01"/>
      <point x="613" y="164"/>
      <point x="521" y="35"/>
      <point x="372" y="35" type="curve" smooth="yes" name="dv02"/>
      <point x="242" y="35"/>
      <point x="133" y="139"/>
      <point x="133" y="343" type="curve" smooth="yes" name="dv12"/>
      <point x="133" y="553"/>
      <point x="245" y="665"/>
      <point x="398" y="665" type="curve" smooth="yes" name="dv03"/>
      <point x="517" y="665"/>
      <point x="598" y="598"/>
      <point x="630" y="485" type="curve"/>
      <point x="690" y="485" type="line"/>
      <point x="644" y="640"/>
      <point x="545" y="720"/>
      <point x="399" y="720" type="curve" smooth="yes" name="dv04"/>
      <point x="199" y="720"/>
      <point x="73" y="569"/>
      <point x="73" y="348" type="curve" smooth="yes" name="dv11"/>
      <point x="73" y="127.2"/>
      <point x="194.6" y="-20"/>
      <point x="377" y="-20" type="curve" smooth="yes" name="dv01"/>
      <point x="514" y="-20"/>
      <point x="613" y="72"/>
      <point x="637" y="251" type="curve" name="dv10"/>
    </contour>
  </outline>
</glyph>
<glyph name="G.ss12" format="2">
  <advance width="764"/>
  <anchor x="390" y="-19" name="bottom"/>
  <anchor x="390" y="719" name="top"/>
  <outline>
    <contour>
      <point x="358" y="308" type="line"/>
      <point x="632" y="308" type="line"/>
      <point x="666" y="0" type="line"/>
      <point x="691" y="0" type="line"/>
      <point x="691" y="358" type="line"/>
      <point x="358" y="358" type="line"/>
    </contour>
    <contour>
      <point x="632" y="344" type="line"/>
      <point x="632" y="338"/>
      <point x="632" y="302"/>
      <point x="632" y="296" type="curve"/>
      <point x="619" y="123"/>
      <point x="518" y="35"/>
      <point x="385" y="35" type="curve" smooth="yes"/>
      <point x="236" y="35"/>
      <point x="133" y="145"/>
      <point x="133" y="349" type="curve" smooth="yes"/>
      <point x="133" y="551"/>
      <point x="234" y="665"/>
      <point x="387" y="665" type="curve" smooth="yes"/>
      <point x="478" y="665"/>
      <point x="571" y="625"/>
      <point x="641" y="546" type="curve"/>
      <point x="647" y="595" type="line"/>
      <point x="573" y="680"/>
      <point x="493" y="720"/>
      <point x="389" y="720" type="curve" smooth="yes"/>
      <point x="188" y="720"/>
      <point x="73" y="570"/>
      <point x="73" y="353" type="curve" smooth="yes"/>
      <point x="73" y="140"/>
      <point x="184" y="-20"/>
      <point x="372" y="-20" type="curve" smooth="yes"/>
      <point x="567" y="-20"/>
      <point x="644" y="151"/>
      <point x="647" y="240" type="curve" smooth="yes"/>
      <point x="651" y="348" type="line"/>
    </contour>
  </outline>
</glyph>
<glyph name="Germandbls.ss12" format="2">
  <advance width="693"/>
  <outline>
    <contour>
      <point x="104" y="0" type="line"/>
      <point x="164" y="0" type="line"/>
      <point x="164" y="488" type="line" smooth="yes"/>
      <point x="164" y="628"/>
      <point x="244" y="665"/>
      <point x="342" y="665" type="curve" smooth="yes"/>
      <point x="391" y="665"/>
      <point x="474" y="645"/>
      <point x="510" y="622" type="curve"/>
      <point x="419" y="538" type="line" smooth="yes"/>
      <point x="364" y="488"/>
      <point x="329" y="454"/>
      <point x="329" y="405" type="curve" smooth="yes"/>
      <point x="329" y="335.323"/>
      <point x="389.786" y="304.187"/>
      <point x="449.528" y="271.073" type="curve" smooth="yes"/>
      <point x="507.252" y="239.078"/>
      <point x="564" y="205.237"/>
      <point x="564" y="133" type="curve" smooth="yes"/>
      <point x="564" y="67"/>
      <point x="508" y="35"/>
      <point x="448" y="35" type="curve" smooth="yes"/>
      <point x="396" y="35"/>
      <point x="352" y="48"/>
      <point x="283" y="107" type="curve"/>
      <point x="276" y="58" type="line"/>
      <point x="332" y="5"/>
      <point x="385" y="-20"/>
      <point x="448" y="-20" type="curve" smooth="yes"/>
      <point x="546" y="-20"/>
      <point x="624" y="43"/>
      <point x="624" y="136" type="curve" smooth="yes"/>
      <point x="624" y="226.342"/>
      <point x="549.398" y="268.224"/>
      <point x="484.44" y="305.749" type="curve" smooth="yes"/>
      <point x="434.353" y="334.684"/>
      <point x="390" y="361.028"/>
      <point x="390" y="405" type="curve" smooth="yes"/>
      <point x="390" y="445"/>
      <point x="431" y="477"/>
      <point x="459" y="502" type="curve" smooth="yes"/>
      <point x="604" y="635" type="line"/>
      <point x="527" y="689"/>
      <point x="441" y="720"/>
      <point x="340" y="720" type="curve" smooth="yes"/>
      <point x="176" y="720"/>
      <point x="104" y="623"/>
      <point x="104" y="489" type="curve" smooth="yes"/>
    </contour>
  </outline>
</glyph>
<glyph name="J.ss12" format="2">
  <advance width="500"/>
  <anchor x="372" y="719" name="top"/>
  <anchor x="209" y="-20" name="bottom"/>
  <outline>
    <contour>
      <point x="31" y="26" type="line"/>
      <point x="75" y="0"/>
      <point x="125" y="-20"/>
      <point x="199" y="-20" type="curve" smooth="yes"/>
      <point x="336" y="-20"/>
      <point x="401" y="58"/>
      <point x="401" y="222" type="curve" smooth="yes"/>
      <point x="401" y="700" type="line"/>
      <point x="341" y="700" type="line"/>
      <point x="341" y="221" type="line" smooth="yes"/>
      <point x="341" y="89"/>
      <point x="295" y="35"/>
      <point x="197" y="35" type="curve" smooth="yes"/>
      <point x="156" y="35"/>
      <point x="105" y="43"/>
      <point x="40" y="66" type="curve"/>
    </contour>
  </outline>
</glyph>
<glyph name="S.ss09" format="2">
  <advance width="590"/>
  <anchor x="280" y="719" name="top"/>
  <anchor x="295" y="-20" name="bottom"/>
  <outline>
    <contour>
      <point x="59" y="197" type="line"/>
      <point x="83" y="66"/>
      <point x="158" y="-21"/>
      <point x="299" y="-21" type="curve" smooth="yes"/>
      <point x="436" y="-21"/>
      <point x="521" y="56"/>
      <point x="521" y="173" type="curve" smooth="yes"/>
      <point x="521" y="306.147"/>
      <point x="413.815" y="338.757"/>
      <point x="312.262" y="369.652" type="curve" smooth="yes"/>
      <point x="220.849" y="397.463"/>
      <point x="134" y="423.886"/>
      <point x="134" y="521" type="curve" smooth="yes"/>
      <point x="134" y="603"/>
      <point x="181" y="665"/>
      <point x="277" y="665" type="curve" smooth="yes"/>
      <point x="379" y="665"/>
      <point x="433" y="605"/>
      <point x="448" y="502" type="curve"/>
      <point x="508" y="502" type="line"/>
      <point x="486" y="633"/>
      <point x="415" y="720"/>
      <point x="281" y="720" type="curve" smooth="yes"/>
      <point x="150" y="720"/>
      <point x="74" y="638"/>
      <point x="74" y="526" type="curve" smooth="yes"/>
      <point x="74" y="389.629"/>
      <point x="183.819" y="355.415"/>
      <point x="286.455" y="323.438" type="curve" smooth="yes"/>
      <point x="376.491" y="295.387"/>
      <point x="461" y="269.058"/>
      <point x="461" y="177" type="curve" smooth="yes"/>
      <point x="461" y="72"/>
      <point x="392" y="34"/>
      <point x="298" y="34" type="curve" smooth="yes"/>
      <point x="199" y="34"/>
      <point x="135" y="90"/>
      <point x="119" y="197" type="curve"/>
    </contour>
  </outline>
</glyph>
<glyph name="Zecyr.ss10" format="2">
  <advance width="598"/>
  <anchor x="299" y="-20" name="bottom"/>
  <anchor x="299" y="719" name="top"/>
  <outline>
    <contour>
      <point x="57" y="97" type="line"/>
      <point x="125" y="18"/>
      <point x="212" y="-20"/>
      <point x="304" y="-20" type="curve" smooth="yes"/>
      <point x="447" y="-20"/>
      <point x="538" y="57.3939"/>
      <point x="538" y="188.059" type="curve" smooth="yes"/>
      <point x="538" y="295.606"/>
      <point x="476" y="356.918"/>
      <point x="346" y="373" type="curve"/>
      <point x="463" y="400.84"/>
      <point x="505" y="452.542"/>
      <point x="505" y="537.054" type="curve" smooth="yes"/>
      <point x="505" y="648.413"/>
      <point x="432" y="720"/>
      <point x="305" y="720" type="curve" smooth="yes"/>
      <point x="213" y="720"/>
      <point x="126" y="682"/>
      <point x="58" y="603" type="curve"/>
      <point x="81" y="537" type="line"/>
      <point x="152" y="643"/>
      <point x="236" y="665"/>
      <point x="299" y="665" type="curve" smooth="yes"/>
      <point x="387" y="665"/>
      <point x="445" y="631"/>
      <point x="445" y="533" type="curve" smooth="yes"/>
      <point x="445" y="456"/>
      <point x="379" y="392"/>
      <point x="296" y="392" type="curve"/>
      <point x="296" y="337" type="line"/>
      <point x="418" y="337"/>
      <point x="479" y="286"/>
      <point x="479" y="182" type="curve" smooth="yes"/>
      <point x="479" y="77"/>
      <point x="390" y="35"/>
      <point x="298" y="35" type="curve" smooth="yes"/>
      <point x="235" y="35"/>
      <point x="151" y="57"/>
      <point x="80" y="163" type="curve"/>
    </contour>
  </outline>
</glyph>
<glyph name="bracketright.case" format="2">
  <advance width="418"/>
  <outline>
    <contour>
      <point x="65" y="-147" type="line"/>
      <point x="316" y="-147" type="line"/>
      <point x="316" y="828" type="line"/>
      <point x="65" y="828" type="line"/>
      <point x="65" y="793" type="line"/>
      <point x="257" y="793" type="line"/>
      <point x="257" y="-112" type="line"/>
      <point x="65" y="-112" type="line"/>
    </contour>
  </outline>
</glyph>
<glyph name="ccedilla.ss12" format="2">
  <advance width="570"/>
  <anchor x="310" y="520" name="top"/>
  <anchor x="290" y="-218" name="bottom"/>
  <outline>
    <contour>
      <point x="483" y="104" type="line"/>
      <point x="428" y="55"/>
      <point x="383" y="30"/>
      <point x="319" y="30" type="curve" smooth="yes"/>
      <point x="205" y="30"/>
      <point x="139" y="111"/>
      <point x="139" y="251" type="curve" smooth="yes"/>
      <point x="139" y="397"/>
      <point x="211" y="470"/>
      <point x="325" y="470" type="curve" smooth="yes"/>
      <point x="376" y="470"/>
      <point x="412" y="455"/>
      <point x="484" y="397" type="curve"/>
      <point x="491" y="441" type="line"/>
      <point x="441" y="494"/>
      <point x="381" y="520"/>
      <point x="309" y="520" type="curve" smooth="yes"/>
      <point x="163" y="520"/>
      <point x="79" y="411"/>
      <point x="79" y="253" type="curve" smooth="yes"/>
      <point x="79" y="91"/>
      <point x="168" y="-20"/>
      <point x="314" y="-20" type="curve" smooth="yes"/>
      <point x="381" y="-20"/>
      <point x="433" y="3"/>
      <point x="490" y="59" type="curve"/>
    </contour>
    <contour>
      <point x="199" y="-205" type="line"/>
      <point x="219" y="-211"/>
      <point x="242" y="-218"/>
      <point x="280" y="-218" type="curve" smooth="yes"/>
      <point x="358" y="-218"/>
      <point x="399" y="-188"/>
      <point x="399" y="-140" type="curve" smooth="yes"/>
      <point x="399" y="-92"/>
      <point x="359" y="-64"/>
      <point x="301" y="-64" type="curve"/>
      <point x="341.194" y="12.1373" type="line"/>
      <point x="296.194" y="12.1373" type="line"/>
      <point x="246" y="-82" type="line"/>
      <point x="258" y="-79"/>
      <point x="268" y="-78"/>
      <point x="278" y="-78" type="curve" smooth="yes"/>
      <point x="323" y="-78"/>
      <point x="347" y="-98"/>
      <point x="347" y="-132" type="curve" smooth="yes"/>
      <point x="347" y="-166"/>
      <point x="322" y="-188"/>
      <point x="277" y="-188" type="curve" smooth="yes"/>
      <point x="256" y="-188"/>
      <point x="232" y="-183"/>
      <point x="214" y="-177" type="curve"/>
    </contour>
  </outline>
</glyph>
<glyph name="d.ss11" format="2">
  <advance width="635"/>
  <anchor x="305" y="-20" name="bottom"/>
  <anchor x="318" y="750" name="top"/>
  <anchor x="572" y="700" name="topright"/>
  <outline>
    <contour>
      <point x="532" y="-10" type="line"/>
      <point x="532" y="700" type="line"/>
      <point x="472" y="700" type="line"/>
      <point x="472" y="135" type="line"/>
    </contour>
    <contour>
      <point x="290" y="-20" type="curve" smooth="yes"/>
      <point x="417" y="-20"/>
      <point x="484" y="77"/>
      <point x="484" y="253" type="curve" smooth="yes"/>
      <point x="484" y="427"/>
      <point x="418" y="520"/>
      <point x="289.212" y="520" type="curve" smooth="yes"/>
      <point x="155" y="520"/>
      <point x="70" y="419"/>
      <point x="70" y="254" type="curve" smooth="yes"/>
      <point x="70" y="88"/>
      <point x="155" y="-20"/>
    </contour>
    <contour>
      <point x="300" y="30" type="curve" smooth="yes"/>
      <point x="194" y="30"/>
      <point x="130" y="118"/>
      <point x="130" y="252" type="curve" smooth="yes"/>
      <point x="130" y="388"/>
      <point x="195" y="469"/>
      <point x="303" y="469" type="curve" smooth="yes"/>
      <point x="408" y="469"/>
      <point x="472" y="392"/>
      <point x="472" y="256" type="curve" smooth="yes"/>
      <point x="472" y="116"/>
      <point x="404" y="30"/>
    </contour>
  </outline>
</glyph>
<glyph name="e.ss09" format="2">
  <advance width="595"/>
  <anchor x="298" y="520" name="top"/>
  <anchor x="298" y="-20" name="bottom"/>
  <anchor x="404" y="-3" name="ogonek"/>
  <outline>
    <contour>
      <point x="462" y="298" type="line"/>
      <point x="462" y="401"/>
      <point x="399" y="470"/>
      <point x="301" y="470" type="curve" smooth="yes"/>
      <point x="201" y="470"/>
      <point x="129" y="398"/>
      <point x="129" y="298" type="curve"/>
    </contour>
    <contour>
      <point x="129" y="253" type="line"/>
      <point x="129" y="113"/>
      <point x="192" y="31"/>
      <point x="301" y="31" type="curve" smooth="yes"/>
      <point x="391" y="31"/>
      <point x="457" y="87"/>
      <point x="461" y="167" type="curve"/>
      <point x="522" y="167" type="line"/>
      <point x="512" y="62"/>
      <point x="431" y="-20"/>
      <point x="305" y="-20" type="curve" smooth="yes"/>
      <point x="155" y="-20"/>
      <point x="68" y="95"/>
      <point x="68" y="252" type="curve" smooth="yes"/>
      <point x="68" y="401"/>
      <point x="147" y="520"/>
      <point x="300" y="520" type="curve" smooth="yes"/>
      <point x="453" y="520"/>
      <point x="528" y="402"/>
      <point x="528" y="253" type="curve"/>
    </contour>
  </outline>
</glyph>
<glyph name="ereversedcyr.ss09" format="2">
  <advance width="611"/>
  <anchor x="305" y="520" name="top"/>
  <anchor x="305" y="-20" name="bottom"/>
  <outline>
    <contour>
      <point x="273" y="229" type="line"/>
      <point x="273" y="275" type="line"/>
      <point x="527" y="275" type="line"/>
      <point x="527" y="229" type="line"/>
    </contour>
    <contour>
      <point x="141" y="167" type="line"/>
      <point x="146" y="83"/>
      <point x="200" y="31"/>
      <point x="296" y="31" type="curve" smooth="yes"/>
      <point x="410" y="31"/>
      <point x="472" y="105"/>
      <point x="472" y="250" type="curve" smooth="yes"/>
      <point x="472" y="394"/>
      <point x="411" y="469"/>
      <point x="295" y="469" type="curve" smooth="yes"/>
      <point x="202" y="469"/>
      <point x="147" y="421"/>
      <point x="139" y="331" type="curve"/>
      <point x="79" y="331" type="line"/>
      <point x="94" y="447"/>
      <point x="172" y="520"/>
      <point x="299" y="520" type="curve" smooth="yes"/>
      <point x="450" y="520"/>
      <point x="532" y="417"/>
      <point x="532" y="253" type="curve" smooth="yes"/>
      <point x="532" y="85"/>
      <point x="446" y="-20"/>
      <point x="295" y="-20" type="curve" smooth="yes"/>
      <point x="165" y="-20"/>
      <point x="88" y="57"/>
      <point x="81" y="167" type="curve"/>
    </contour>
  </outline>
</glyph>
<glyph name="hardcyr.loclBGR" format="2">
  <advance width="600"/>
  <outline>
    <contour>
      <point x="179" y="255" type="line"/>
      <point x="352" y="255" type="line" smooth="yes"/>
      <point x="424" y="255"/>
      <point x="470" y="213.293"/>
      <point x="470" y="141.951" type="curve" smooth="yes"/>
      <point x="470" y="71.7073"/>
      <point x="429.376" y="30"/>
      <point x="349.376" y="30" type="curve" smooth="yes"/>
      <point x="270.161" y="30"/>
      <point x="224.446" y="69.0205"/>
      <point x="224.376" y="136.533" type="curve" smooth="yes"/>
      <point x="224" y="500" type="line"/>
      <point x="164" y="500" type="line"/>
      <point x="164.376" y="140.16" type="line" smooth="yes"/>
      <point x="164.482" y="38.7151"/>
      <point x="231.251" y="-20"/>
      <point x="348.233" y="-20" type="curve" smooth="yes"/>
      <point x="464" y="-20"/>
      <point x="530" y="45"/>
      <point x="530" y="144.098" type="curve" smooth="yes"/>
      <point x="530" y="246.393"/>
      <point x="461" y="305"/>
      <point x="346" y="305" type="curve" smooth="yes"/>
      <point x="179" y="305" type="line"/>
    </contour>
    <contour>
      <point x="21" y="450" type="line"/>
      <point x="179" y="450" type="line"/>
      <point x="212" y="500" type="line"/>
      <point x="21" y="500" type="line"/>
    </contour>
  </outline>
</glyph>
<glyph name="hryvnia.ss12" format="2">
  <advance width="710"/>
  <outline>
    <contour>
      <point x="52" y="275" type="line"/>
      <point x="164.42" y="275" type="line"/>
      <point x="145.47" y="248.7"/>
      <point x="134" y="215.19"/>
      <point x="134" y="171" type="curve" smooth="yes"/>
      <point x="134" y="50"/>
      <point x="224" y="-20"/>
      <point x="344" y="-20" type="curve" smooth="yes"/>
      <point x="444" y="-20"/>
      <point x="504" y="20"/>
      <point x="578" y="105" type="curve"/>
      <point x="572" y="154" type="line"/>
      <point x="502" y="75"/>
      <point x="429" y="35"/>
      <point x="340" y="35" type="curve" smooth="yes"/>
      <point x="258" y="35"/>
      <point x="194" y="74"/>
      <point x="194" y="164" type="curve" smooth="yes"/>
      <point x="194" y="216.72"/>
      <point x="217.88" y="250.28"/>
      <point x="253.66" y="275" type="curve"/>
      <point x="659" y="275" type="line"/>
      <point x="659" y="309" type="line"/>
      <point x="52" y="309" type="line"/>
    </contour>
    <contour>
      <point x="51" y="407" type="line"/>
      <point x="658" y="407" type="line"/>
      <point x="658" y="441" type="line"/>
      <point x="549.98" y="441" type="line"/>
      <point x="564.47" y="465.63"/>
      <point x="573" y="495.9"/>
      <point x="573" y="534" type="curve" smooth="yes"/>
      <point x="573" y="645"/>
      <point x="491" y="720"/>
      <point x="382" y="720" type="curve" smooth="yes"/>
      <point x="284" y="720"/>
      <point x="225" y="680"/>
      <point x="153" y="595" type="curve"/>
      <point x="159" y="546" type="line"/>
      <point x="227" y="625"/>
      <point x="298" y="665"/>
      <point x="385" y="665" type="curve" smooth="yes"/>
      <point x="467" y="665"/>
      <point x="513" y="608"/>
      <point x="513" y="534" type="curve" smooth="yes"/>
      <point x="513" y="492.54"/>
      <point x="497.94" y="463.29"/>
      <point x="473.84" y="441" type="curve"/>
      <point x="51" y="441" type="line"/>
    </contour>
  </outline>
</glyph>
<glyph name="k.ss11" format="2">
  <advance width="592"/>
  <anchor x="126" y="750" name="top"/>
  <anchor x="296" y="-20" name="bottom"/>
  <outline>
    <contour>
      <point x="94" y="0" type="line" name="av01"/>
      <point x="154" y="0" type="line"/>
      <point x="154" y="700" type="line" name="av02"/>
      <point x="94" y="700" type="line"/>
    </contour>
    <contour>
      <point x="105" y="283" type="line"/>
      <point x="350" y="283" type="line" name="iv01"/>
      <point x="470" y="0" type="line" name="ab02"/>
      <point x="536" y="0" type="line"/>
      <point x="398" y="295" type="line"/>
      <point x="526" y="500" type="line" name="av02"/>
      <point x="464" y="500" type="line"/>
      <point x="371" y="332" type="line" name="iv02"/>
      <point x="101" y="332" type="line"/>
    </contour>
  </outline>
</glyph>
<glyph name="l.ss11" format="2">
  <advance width="272"/>
  <anchor x="136" y="-20" name="bottom"/>
  <anchor x="136" y="750" name="top"/>
  <anchor x="202" y="700" name="topright"/>
  <outline>
    <contour>
      <point x="106" y="0" type="line" name="av01"/>
      <point x="166" y="0" type="line"/>
      <point x="166" y="700" type="line" name="av02"/>
      <point x="106" y="700" type="line"/>
    </contour>
  </outline>
</glyph>
<glyph name="ljecyr.ss08" format="2">
  <advance width="790"/>
  <outline>
    <contour>
      <point x="452" y="0" type="line"/>
      <point x="566" y="0" type="line" smooth="yes"/>
      <point x="677" y="0"/>
      <point x="720" y="60"/>
      <point x="720" y="144" type="curve" smooth="yes"/>
      <point x="720" y="228"/>
      <point x="673" y="285"/>
      <point x="564" y="285" type="curve" smooth="yes"/>
      <point x="378" y="285" type="line"/>
      <point x="378" y="235" type="line"/>
      <point x="567" y="235" type="line" smooth="yes"/>
      <point x="633" y="235"/>
      <point x="660" y="199"/>
      <point x="660" y="143" type="curve" smooth="yes"/>
      <point x="660" y="88"/>
      <point x="623" y="51"/>
      <point x="567" y="51" type="curve" smooth="yes"/>
      <point x="472" y="51" type="line"/>
    </contour>
    <contour>
      <point x="45" y="0" type="line"/>
      <point x="109" y="0" type="line"/>
      <point x="275" y="452" type="line"/>
      <point x="441" y="0" type="line"/>
      <point x="505" y="0" type="line"/>
      <point x="313" y="500" type="line"/>
      <point x="237" y="500" type="line"/>
    </contour>
  </outline>
</glyph>
<glyph name="nine.osf.ss10" format="2">
  <advance width="667"/>
  <outline>
    <contour>
      <point x="137" y="329" type="curve" smooth="yes"/>
      <point x="137" y="210"/>
      <point x="207" y="148"/>
      <point x="320" y="148" type="curve" smooth="yes"/>
      <point x="446" y="148"/>
      <point x="520" y="225"/>
      <point x="520" y="328" type="curve" smooth="yes"/>
      <point x="520" y="429"/>
      <point x="449" y="514"/>
      <point x="318" y="514" type="curve" smooth="yes"/>
      <point x="190" y="514"/>
      <point x="137" y="433"/>
    </contour>
    <contour>
      <point x="96" y="12" type="line"/>
      <point x="167" y="-97"/>
      <point x="246" y="-116"/>
      <point x="317" y="-116" type="curve" smooth="yes"/>
      <point x="477.935" y="-116"/>
      <point x="544.15" y="15.9703"/>
      <point x="539.799" y="260.148" type="curve"/>
      <point x="544.745" y="253.115" type="line"/>
      <point x="516.139" y="151.489"/>
      <point x="436.881" y="96"/>
      <point x="321" y="96" type="curve" smooth="yes"/>
      <point x="176" y="96"/>
      <point x="77" y="182"/>
      <point x="77" y="331" type="curve" smooth="yes"/>
      <point x="77" y="459"/>
      <point x="151" y="569"/>
      <point x="320" y="569" type="curve" smooth="yes"/>
      <point x="497" y="569"/>
      <point x="594" y="448"/>
      <point x="594" y="211" type="curve" smooth="yes"/>
      <point x="594" y="-18"/>
      <point x="503" y="-171"/>
      <point x="319" y="-171" type="curve" smooth="yes"/>
      <point x="227" y="-171"/>
      <point x="141" y="-133"/>
      <point x="73" y="-54" type="curve"/>
    </contour>
  </outline>
</glyph>
<glyph name="schwa.ss10" format="2">
  <advance width="600"/>
  <anchor x="300" y="-20" name="bottom"/>
  <anchor x="300" y="520" name="top"/>
  <outline>
    <contour>
      <point x="461" y="232" type="line"/>
      <point x="461" y="90"/>
      <point x="388" y="30"/>
      <point x="292" y="30" type="curve" smooth="yes"/>
      <point x="196" y="30"/>
      <point x="130" y="94"/>
      <point x="130" y="232" type="curve"/>
    </contour>
    <contour>
      <point x="73" y="276" type="line"/>
      <point x="72" y="267"/>
      <point x="70" y="259"/>
      <point x="70" y="235" type="curve" smooth="yes"/>
      <point x="70" y="81"/>
      <point x="153" y="-20"/>
      <point x="294" y="-20" type="curve" smooth="yes"/>
      <point x="437" y="-20"/>
      <point x="521" y="83"/>
      <point x="521" y="245" type="curve" smooth="yes"/>
      <point x="521" y="412"/>
      <point x="437" y="520"/>
      <point x="291" y="520" type="curve" smooth="yes"/>
      <point x="218" y="520"/>
      <point x="145" y="493"/>
      <point x="102" y="445" type="curve"/>
      <point x="122" y="383" type="line"/>
      <point x="153" y="435"/>
      <point x="222" y="470"/>
      <point x="291" y="470" type="curve" smooth="yes"/>
      <point x="391" y="470"/>
      <point x="460" y="395"/>
      <point x="460" y="276" type="curve"/>
    </contour>
  </outline>
</glyph>
<glyph name="three.osf.ss10" format="2">
  <advance width="550"/>
  <outline>
    <contour>
      <point x="192" y="234" type="line"/>
      <point x="351" y="234"/>
      <point x="410" y="307.396"/>
      <point x="410" y="389.179" type="curve" smooth="yes"/>
      <point x="410" y="477.254"/>
      <point x="342" y="515"/>
      <point x="256" y="515" type="curve" smooth="yes"/>
      <point x="194" y="515"/>
      <point x="121" y="496"/>
      <point x="50" y="387" type="curve"/>
      <point x="27" y="453" type="line"/>
      <point x="95" y="532"/>
      <point x="171" y="570"/>
      <point x="261" y="570" type="curve" smooth="yes"/>
      <point x="380" y="570"/>
      <point x="470" y="501.603"/>
      <point x="470" y="387.609" type="curve" smooth="yes"/>
      <point x="470" y="273.615"/>
      <point x="380" y="199"/>
      <point x="192" y="199" type="curve"/>
    </contour>
    <contour>
      <point x="57" y="13" type="line"/>
      <point x="133" y="-103"/>
      <point x="208" y="-115"/>
      <point x="264" y="-115" type="curve" smooth="yes"/>
      <point x="363" y="-115"/>
      <point x="430" y="-66.3392"/>
      <point x="430" y="18.5583" type="curve" smooth="yes"/>
      <point x="430" y="103.456"/>
      <point x="365" y="178"/>
      <point x="192" y="178" type="curve"/>
      <point x="192" y="213" type="line"/>
      <point x="394" y="213"/>
      <point x="490" y="137.016"/>
      <point x="490" y="17.9062" type="curve" smooth="yes"/>
      <point x="490" y="-102.231"/>
      <point x="385" y="-170"/>
      <point x="266" y="-170" type="curve" smooth="yes"/>
      <point x="176" y="-170"/>
      <point x="102" y="-132"/>
      <point x="34" y="-53" type="curve"/>
    </contour>
  </outline>
</glyph>
<glyph name="tshecyr.ss11" format="2">
  <advance width="665"/>
  <outline>
    <contour>
      <point x="134" y="0" type="line"/>
      <point x="194" y="0" type="line"/>
      <point x="194" y="700" type="line"/>
      <point x="134" y="700" type="line"/>
    </contour>
    <contour>
      <point x="194" y="217" type="line" name="iv01"/>
      <point x="194" y="363"/>
      <point x="262" y="449"/>
      <point x="380" y="449" type="curve" smooth="yes" name="sv01"/>
      <point x="459" y="449"/>
      <point x="501" y="411"/>
      <point x="501" y="287" type="curve" smooth="yes"/>
      <point x="501" y="0" type="line" name="ab01"/>
      <point x="561" y="0" type="line"/>
      <point x="561" y="294" type="line" smooth="yes"/>
      <point x="561" y="441"/>
      <point x="496" y="500"/>
      <point x="401" y="500" type="curve" smooth="yes" name="at01"/>
      <point x="287" y="500"/>
      <point x="198" y="415"/>
      <point x="190" y="307" type="curve"/>
      <point x="191" y="257" type="line"/>
    </contour>
    <contour>
      <point x="30" y="580" type="line"/>
      <point x="435" y="580" type="line"/>
      <point x="435" y="616" type="line"/>
      <point x="30" y="616" type="line"/>
    </contour>
  </outline>
</glyph>
<glyph name="two.osf" format="2">
  <advance width="632"/>
  <outline>
    <contour>
      <point x="87" y="36" type="line"/>
      <point x="420.315" y="117.068"/>
      <point x="512" y="238.627"/>
      <point x="512" y="375.173" type="curve" smooth="yes"/>
      <point x="512" y="506.723"/>
      <point x="426.167" y="570"/>
      <point x="304.093" y="570" type="curve" smooth="yes"/>
      <point x="226.843" y="570"/>
      <point x="146.731" y="539"/>
      <point x="100" y="487" type="curve"/>
      <point x="143" y="444" type="line"/>
      <point x="187.134" y="492"/>
      <point x="245.354" y="515"/>
      <point x="300.756" y="515" type="curve" smooth="yes"/>
      <point x="378.695" y="515"/>
      <point x="451" y="478.879"/>
      <point x="451" y="363.291" type="curve" smooth="yes"/>
      <point x="451" y="243.689"/>
      <point x="360.948" y="161.814"/>
      <point x="87" y="70" type="curve"/>
    </contour>
    <contour>
      <point x="87" y="0" type="line"/>
      <point x="532" y="0" type="line"/>
      <point x="532" y="54" type="line"/>
      <point x="87" y="54" type="line"/>
    </contour>
  </outline>
</glyph>
<glyph name="uogonek.ss05" format="2">
  <advance width="600"/>
  <anchor x="300" y="-20" name="bottom"/>
  <anchor x="300" y="520" name="top"/>
  <outline>
    <contour>
      <point x="443" y="203" type="line"/>
      <point x="437" y="263" type="line"/>
      <point x="437" y="107"/>
      <point x="386" y="30"/>
      <point x="284" y="30" type="curve" smooth="yes"/>
      <point x="198" y="30"/>
      <point x="156" y="84"/>
      <point x="156" y="180" type="curve" smooth="yes"/>
      <point x="156" y="500" type="line"/>
      <point x="96" y="500" type="line"/>
      <point x="96" y="196" type="line" smooth="yes"/>
      <point x="96" y="51"/>
      <point x="157" y="-20"/>
      <point x="263" y="-20" type="curve" smooth="yes"/>
      <point x="358" y="-20"/>
      <point x="416" y="38"/>
      <point x="443" y="130" type="curve"/>
    </contour>
    <contour>
      <point x="437" y="0" type="line" name="ab01"/>
      <point x="497" y="0" type="line"/>
      <point x="497" y="500" type="line"/>
      <point x="437" y="500" type="line" name="av01"/>
    </contour>
    <contour>
      <point x="498" y="-183" type="line"/>
      <point x="454" y="-171"/>
      <point x="431" y="-143"/>
      <point x="431" y="-103" type="curve" smooth="yes"/>
      <point x="431" y="-62"/>
      <point x="456" y="-22"/>
      <point x="497" y="0" type="curve"/>
      <point x="479" y="3" type="line"/>
      <point x="419" y="-12"/>
      <point x="376" y="-59"/>
      <point x="376" y="-108" type="curve" smooth="yes"/>
      <point x="376" y="-154"/>
      <point x="415" y="-196"/>
      <point x="462" y="-206" type="curve"/>
    </contour>
  </outline>
</glyph>
<glyph name="zecyr.loclBGR.ss09" format="2">
  <advance width="525"/>
  <outline>
    <contour>
      <point x="66.2917" y="-33.2272" type="line"/>
      <point x="77.2917" y="-147.227"/>
      <point x="143.441" y="-220"/>
      <point x="260.718" y="-220" type="curve" smooth="yes"/>
      <point x="393.023" y="-220"/>
      <point x="466.77" y="-127.383"/>
      <point x="466.77" y="-20.2307" type="curve" smooth="yes"/>
      <point x="466.77" y="103.769"/>
      <point x="358.009" y="173.793"/>
      <point x="268.986" y="173.793" type="curve"/>
      <point x="355.979" y="173.793"/>
      <point x="446.77" y="242.797"/>
      <point x="446.77" y="350.471" type="curve" smooth="yes"/>
      <point x="446.77" y="445.884"/>
      <point x="385.049" y="518.688"/>
      <point x="271.065" y="518.688" type="curve" smooth="yes"/>
      <point x="158.205" y="518.688"/>
      <point x="87.2917" y="453.688"/>
      <point x="78" y="331" type="curve"/>
      <point x="138" y="331" type="line"/>
      <point x="143" y="416"/>
      <point x="187.36" y="467.688"/>
      <point x="272.857" y="467.688" type="curve" smooth="yes"/>
      <point x="354.086" y="467.688"/>
      <point x="387.049" y="421.012"/>
      <point x="387.049" y="351.309" type="curve" smooth="yes"/>
      <point x="387.049" y="247.76"/>
      <point x="311.322" y="193.966"/>
      <point x="201" y="193.966" type="curve"/>
      <point x="201" y="149.966" type="line"/>
      <point x="352" y="149.966"/>
      <point x="402.292" y="76.9929"/>
      <point x="402.292" y="-21.4716" type="curve" smooth="yes"/>
      <point x="402.292" y="-117.529"/>
      <point x="354.429" y="-169"/>
      <point x="265.72" y="-169" type="curve" smooth="yes" name="sv01"/>
      <point x="165.441" y="-169"/>
      <point x="130.292" y="-103.227"/>
      <point x="126.292" y="-33.2272" type="curve"/>
    </contour>
  </outline>
</glyph>
<glyph name="zecyr.loclBGR.ss10" format="2">
  <advance width="500"/>
  <outline>
    <contour>
      <point x="77" y="-83.067" type="line"/>
      <point x="108.628" y="-134.067"/>
      <point x="173.926" y="-170.067"/>
      <point x="251.466" y="-170.067" type="curve" smooth="yes"/>
      <point x="340.175" y="-170.067"/>
      <point x="382.292" y="-118.424"/>
      <point x="382.292" y="-22.045" type="curve" smooth="yes"/>
      <point x="382.292" y="76.7488"/>
      <point x="332" y="149.966"/>
      <point x="181" y="149.966" type="curve"/>
      <point x="181" y="193.966" type="line"/>
      <point x="274.176" y="193.966"/>
      <point x="361" y="256.282"/>
      <point x="361" y="357.417" type="curve" smooth="yes"/>
      <point x="361" y="428.513"/>
      <point x="318.094" y="470"/>
      <point x="248.626" y="470" type="curve" smooth="yes"/>
      <point x="174.05" y="470"/>
      <point x="108.669" y="434"/>
      <point x="77" y="383" type="curve"/>
      <point x="57" y="445" type="line"/>
      <point x="100.721" y="493"/>
      <point x="165.793" y="520"/>
      <point x="250.184" y="520" type="curve" smooth="yes"/>
      <point x="381.346" y="520"/>
      <point x="421" y="438.523"/>
      <point x="421" y="359.4" type="curve" smooth="yes"/>
      <point x="421" y="269.301"/>
      <point x="369.581" y="189.295"/>
      <point x="238.276" y="175.295" type="curve"/>
      <point x="327.299" y="175.295"/>
      <point x="446.77" y="119.692"/>
      <point x="446.77" y="-19.5016" type="curve" smooth="yes"/>
      <point x="446.77" y="-139.841"/>
      <point x="366.856" y="-220.067"/>
      <point x="246.984" y="-220.067" type="curve" smooth="yes"/>
      <point x="165.707" y="-220.067"/>
      <point x="100.686" y="-193.067"/>
      <point x="57" y="-145.067" type="curve"/>
    </contour>
  </outline>
</glyph>
